# xmcd
#
# Track frame offsets:
#	150
#	9404
#	36123
#	50644
#	75390
#	93860
#	109676
#	143530
#	156618
#	181650
#	197784
#
# Disc length: 2835 seconds
#
# Revision: 1
# Processed by: cddbd v1.5.2PL0 Copyright (c) Steve Scherf et al.
# Submitted via: EZCDAudioConverter 2.1.7.1
#
DISCID=810b110b
DTITLE=Express Rising - Express Rising (2013)
DYEAR=1900
DGENRE=
TTITLE0=Rooms Between Us
TTITLE1=Memorabilia
TTITLE2=Leland Sprinkle
TTITLE3=Horse Opera
TTITLE4=Worry Your Time
TTITLE5=Left Right Behind
TTITLE6=Daniel Fern
TTITLE7=A Treasure Smile
TTITLE8=Winter The Heart
TTITLE9=Answering Echo So Near
TTITLE10=Dark Early
EXTD=
EXTT0=
EXTT1=
EXTT2=
EXTT3=
EXTT4=
EXTT5=
EXTT6=
EXTT7=
EXTT8=
EXTT9=
EXTT10=
PLAYORDER=
